<?xml version="1.0" encoding="UTF-8"?>
<svg xmlns="http://www.w3.org/2000/svg" width="190" height="81" viewBox="0 0 190 81" fill="none">
  <path d="M26.8762 61.2216L20.3608 80.225H19.8178L13.4381 61.9852L7.0584 80.225H6.51544L0 61.2216H0.593855L6.80389 79.3597L13.1497 61.2216H13.6926L20.0723 79.4106L26.2823 61.2216H26.8762Z" fill="white"></path>
  <path d="M30.8813 79.4106C29.8463 78.7998 29.0318 77.9514 28.438 76.8655C27.8441 75.7796 27.5557 74.5579 27.5557 73.2006C27.5557 71.8432 27.8441 70.6215 28.438 69.5526C29.0318 68.4836 29.8463 67.6353 30.8813 67.0245C31.9163 66.4136 33.087 66.1082 34.3765 66.1082C35.666 66.1082 36.8198 66.4136 37.8718 67.0245C38.9068 67.6353 39.7212 68.4667 40.3151 69.5526C40.9089 70.6385 41.1974 71.8432 41.1974 73.2006C41.1974 74.5579 40.9089 75.7796 40.3151 76.8655C39.7212 77.9514 38.9068 78.7998 37.8718 79.4106C36.8368 80.0214 35.666 80.3268 34.3765 80.3268C33.087 80.3268 31.9332 80.0214 30.8813 79.4106ZM37.5664 78.9525C38.5335 78.3925 39.2801 77.612 39.823 76.611C40.366 75.6099 40.6375 74.4731 40.6375 73.2006C40.6375 71.928 40.366 70.7912 39.823 69.7901C39.2801 68.7891 38.5335 68.0086 37.5664 67.4486C36.5992 66.8887 35.5473 66.6172 34.3596 66.6172C33.1718 66.6172 32.1199 66.8887 31.1527 67.4486C30.1856 68.0086 29.439 68.7721 28.8961 69.7901C28.3531 70.7912 28.0816 71.928 28.0816 73.2006C28.0816 74.4731 28.3531 75.6099 28.8961 76.611C29.439 77.612 30.1856 78.3925 31.1527 78.9525C32.1199 79.5124 33.1718 79.8008 34.3596 79.8008C35.5473 79.8008 36.5992 79.5124 37.5664 78.9525Z" fill="white"></path>
  <path d="M47.814 67.0754C48.7472 66.4306 49.918 66.1082 51.3093 66.1082V66.6512H51.1396C49.4598 66.6512 48.1534 67.1941 47.2032 68.2631C46.253 69.332 45.7949 70.8082 45.7949 72.6746V80.225H45.252V66.1931H45.7949V69.8241C46.1852 68.6363 46.8638 67.7031 47.797 67.0754H47.814Z" fill="white"></path>
  <path d="M66.6974 80.225H66.1544V75.9323C65.6793 77.2727 64.8819 78.3416 63.762 79.1221C62.6422 79.9026 61.3527 80.3098 59.8765 80.3098C58.604 80.3098 57.4502 80.0044 56.4152 79.3936C55.3802 78.7828 54.5488 77.9344 53.9549 76.8485C53.3611 75.7626 53.0557 74.541 53.0557 73.1836C53.0557 71.8262 53.3611 70.6046 53.9549 69.5356C54.5488 68.4667 55.3632 67.6183 56.4152 67.0075C57.4502 66.3967 58.604 66.0912 59.8765 66.0912C61.3187 66.0912 62.6083 66.4815 63.7451 67.279C64.8819 68.0595 65.6793 69.1284 66.1544 70.4349V60.0679H66.6974V80.225ZM63.0833 78.9525C64.0505 78.3925 64.797 77.612 65.34 76.611C65.8829 75.6099 66.1544 74.4731 66.1544 73.2005C66.1544 71.928 65.8829 70.7912 65.34 69.7901C64.797 68.789 64.0505 68.0086 63.0833 67.4486C62.1162 66.8887 61.0642 66.6172 59.8765 66.6172C58.6888 66.6172 57.6368 66.8887 56.6697 67.4486C55.7026 68.0086 54.956 68.7721 54.413 69.7901C53.8701 70.7912 53.5986 71.928 53.5986 73.2005C53.5986 74.4731 53.8701 75.6099 54.413 76.611C54.956 77.612 55.7026 78.3925 56.6697 78.9525C57.6368 79.5124 58.6888 79.8008 59.8765 79.8008C61.0642 79.8008 62.1162 79.5124 63.0833 78.9525Z" fill="white"></path>
  <path d="M80.3744 79.4106C79.3394 78.7998 78.525 77.9514 77.9311 76.8655C77.3373 75.7796 77.0488 74.5579 77.0488 73.2006C77.0488 71.8432 77.3373 70.6215 77.9311 69.5526C78.525 68.4836 79.3394 67.6353 80.3744 67.0245C81.4094 66.4136 82.5802 66.1082 83.8697 66.1082C85.1592 66.1082 86.313 66.4136 87.3649 67.0245C88.3999 67.6353 89.2144 68.4667 89.8082 69.5526C90.4021 70.6385 90.6905 71.8432 90.6905 73.2006C90.6905 74.5579 90.4021 75.7796 89.8082 76.8655C89.2144 77.9514 88.3999 78.7998 87.3649 79.4106C86.3299 80.0214 85.1592 80.3268 83.8697 80.3268C82.5802 80.3268 81.4264 80.0214 80.3744 79.4106ZM87.0595 78.9525C88.0267 78.3925 88.7732 77.612 89.3162 76.611C89.8591 75.6099 90.1306 74.4731 90.1306 73.2006C90.1306 71.928 89.8591 70.7912 89.3162 69.7901C88.7732 68.7891 88.0267 68.0086 87.0595 67.4486C86.0924 66.8887 85.0404 66.6172 83.8527 66.6172C82.665 66.6172 81.613 66.8887 80.6459 67.4486C79.6788 68.0086 78.9322 68.7721 78.3892 69.7901C77.8463 70.7912 77.5748 71.928 77.5748 73.2006C77.5748 74.4731 77.8463 75.6099 78.3892 76.611C78.9322 77.612 79.6788 78.3925 80.6459 78.9525C81.613 79.5124 82.665 79.8008 83.8527 79.8008C85.0404 79.8008 86.0924 79.5124 87.0595 78.9525Z" fill="white"></path>
  <path d="M96.2383 61.3065C95.7462 61.8325 95.5087 62.596 95.5087 63.5801V66.1931H100.26V66.7021H95.5087V80.225H94.9658V66.7021H92.251V66.1931H94.9658V63.4444C94.9658 62.3924 95.2712 61.561 95.865 60.9332C96.4589 60.3054 97.2903 60 98.3592 60C98.8852 60 99.3942 60.0848 99.8863 60.2545C100.378 60.4242 100.786 60.6787 101.091 61.0011L100.718 61.3744C100.107 60.7975 99.3263 60.509 98.3762 60.509C97.426 60.509 96.7134 60.7635 96.2383 61.2895V61.3065Z" fill="white"></path>
  <path d="M128.154 61.2216V80.225H127.611V62.3924L118.958 77.5442H118.636L109.982 62.4433V80.225H109.439V61.2216H109.898L118.805 76.7976L127.713 61.2216H128.171H128.154Z" fill="white"></path>
  <path d="M136.043 79.4106C135.008 78.7998 134.194 77.9514 133.6 76.8655C133.006 75.7796 132.718 74.5579 132.718 73.2006C132.718 71.8432 133.006 70.6215 133.6 69.5526C134.194 68.4836 135.008 67.6353 136.043 67.0245C137.078 66.4136 138.249 66.1082 139.539 66.1082C140.828 66.1082 141.982 66.4136 143.034 67.0245C144.069 67.6353 144.883 68.4667 145.477 69.5526C146.071 70.6385 146.359 71.8432 146.359 73.2006C146.359 74.5579 146.071 75.7796 145.477 76.8655C144.883 77.9514 144.069 78.7998 143.034 79.4106C141.999 80.0214 140.828 80.3268 139.539 80.3268C138.249 80.3268 137.095 80.0214 136.043 79.4106ZM142.745 78.9525C143.713 78.3925 144.459 77.612 145.002 76.611C145.545 75.6099 145.817 74.4731 145.817 73.2006C145.817 71.928 145.545 70.7912 145.002 69.7901C144.459 68.7891 143.713 68.0086 142.745 67.4486C141.778 66.8887 140.726 66.6172 139.539 66.6172C138.351 66.6172 137.299 66.8887 136.332 67.4486C135.365 68.0086 134.618 68.7721 134.075 69.7901C133.532 70.7912 133.261 71.928 133.261 73.2006C133.261 74.4731 133.532 75.6099 134.075 76.611C134.618 77.612 135.365 78.3925 136.332 78.9525C137.299 79.5124 138.351 79.8008 139.539 79.8008C140.726 79.8008 141.778 79.5124 142.745 78.9525Z" fill="white"></path>
  <path d="M162.207 66.1931V80.225H161.664V76.5092C161.24 77.6969 160.544 78.6301 159.577 79.3088C158.593 79.9705 157.405 80.3098 156.014 80.3098C154.198 80.3098 152.79 79.8008 151.772 78.7998C150.754 77.7987 150.245 76.3565 150.245 74.4731V66.1931H150.788V74.4731C150.788 76.1868 151.246 77.5102 152.145 78.4265C153.045 79.3427 154.334 79.8008 155.98 79.8008C157.728 79.8008 159.119 79.2579 160.137 78.155C161.155 77.0521 161.664 75.6099 161.664 73.8283V66.1931H162.207Z" fill="white"></path>
  <path d="M174.287 79.3088C173.982 79.6312 173.575 79.8857 173.083 80.0553C172.59 80.225 172.081 80.3099 171.555 80.3099C170.47 80.3099 169.638 80.0044 169.044 79.3766C168.45 78.7489 168.162 77.9175 168.162 76.8655V66.719H165.447V66.21H168.162V63.1389H168.705V66.21H173.456V66.719H168.705V76.7298C168.705 77.7308 168.943 78.4774 169.435 79.0034C169.927 79.5294 170.639 79.7839 171.572 79.7839C172.506 79.7839 173.286 79.4954 173.914 78.9185L174.287 79.2918V79.3088Z" fill="white"></path>
  <path d="M188.507 67.6183C189.508 68.6194 190 70.0616 190 71.945V80.225H189.457V71.945C189.457 70.2313 189.016 68.9078 188.134 67.9916C187.252 67.0754 186.013 66.6172 184.401 66.6172C182.569 66.6172 181.126 67.1602 180.074 68.2631C179.022 69.366 178.479 70.8082 178.479 72.5897V80.225H177.937V60.0848H178.479V69.9428C178.921 68.7551 179.633 67.805 180.651 67.1263C181.669 66.4476 182.908 66.1082 184.367 66.1082C186.115 66.1082 187.506 66.6172 188.49 67.6183H188.507Z" fill="white"></path>
  <path d="M131.136 53.2089C130.658 52.687 130.411 51.9296 130.411 51.0037V17.1022C130.411 11.8167 131.844 7.62531 134.726 4.57855C137.592 1.5318 141.545 0 146.568 0C149.484 0 152.168 0.791147 154.639 2.35661C157.109 3.9389 158.97 6.02618 160.206 8.63529C161.441 5.99252 163.269 3.8884 165.69 2.33978C168.111 0.791147 170.813 0 173.843 0C178.867 0 182.819 1.51496 185.685 4.54489C188.551 7.55798 190 11.7494 190 17.1022V51.0037C190 51.9632 189.737 52.687 189.243 53.2089C188.749 53.7307 188.09 54 187.266 54C186.443 54 185.751 53.7307 185.29 53.2089C184.829 52.687 184.615 51.9296 184.615 51.0037V17.1022C184.615 13.1465 183.758 10.1166 182.062 8.01247C180.365 5.90836 177.582 4.86471 173.711 4.86471C170.318 4.86471 167.65 5.94202 165.74 8.1303C163.829 10.3017 162.874 13.298 162.874 17.0854V50.9869C162.874 51.9464 162.627 52.6702 162.149 53.192C161.672 53.7138 161.029 53.9832 160.222 53.9832C159.415 53.9832 158.773 53.7138 158.328 53.192C157.867 52.6702 157.653 51.9127 157.653 50.9869V17.1022C157.653 13.399 156.648 10.4364 154.639 8.19763C152.629 5.97569 149.994 4.86471 146.75 4.86471C142.879 4.86471 140.096 5.90836 138.399 8.01247C136.703 10.1166 135.846 13.1465 135.846 17.1022V51.0037C135.846 51.9632 135.599 52.687 135.122 53.2089C134.644 53.7307 133.969 54 133.112 54C132.256 54 131.663 53.7307 131.185 53.2089H131.136Z" fill="white"></path>
  <path d="M117.202 12.8098C114.962 8.71945 111.915 5.57169 108.045 3.34975C104.174 1.1278 99.8096 0.0168304 94.9838 0.0168304C90.158 0.0168304 85.7934 1.1278 81.9229 3.34975C78.0524 5.57169 75.0054 8.71945 72.7655 12.8098C70.5255 16.9002 69.4385 21.6303 69.4385 27.0168C69.4385 32.4034 70.5585 37.0998 72.7655 41.1902C75.0054 45.2974 78.0524 48.462 81.9229 50.6671C85.7934 52.889 90.158 54 94.9838 54C99.8096 54 104.174 52.889 108.045 50.6671C111.915 48.4451 114.962 45.2637 117.202 41.1902C119.442 37.0829 120.529 32.3529 120.529 27.0168C120.529 21.6808 119.409 16.8666 117.202 12.8098Z" fill="#D19835"></path>
  <path d="M58.8316 0.774314C59.3093 1.29613 59.5563 2.05362 59.5563 2.97943V36.8809C59.5563 42.1665 58.1234 46.3579 55.2576 49.4046C52.3918 52.4514 48.4389 53.9832 43.4155 53.9832C40.5003 53.9832 37.8156 53.192 35.3451 51.6266C32.8746 50.0443 31.0134 47.957 29.7782 45.3479C28.5429 47.9906 26.7147 50.0948 24.2936 51.6434C21.8889 53.192 19.1713 53.9832 16.1408 53.9832C11.1174 53.9832 7.16455 52.4682 4.29873 49.4383C1.43291 46.4252 0 42.2338 0 36.8809V2.99626C0 2.03678 0.263524 1.31297 0.75763 0.791147C1.25174 0.269327 1.91055 0 2.73406 0C3.55757 0 4.24932 0.269327 4.71048 0.791147C5.17165 1.31297 5.38576 2.07045 5.38576 2.99626V36.8978C5.38576 40.8535 6.24222 43.8834 7.93865 45.9875C9.63508 48.0916 12.4186 49.1353 16.2891 49.1353C19.6819 49.1353 22.3501 48.058 24.2606 45.8697C26.1712 43.6983 27.1265 40.702 27.1265 36.9146V2.99626C27.1265 2.03678 27.3735 1.31297 27.8512 0.791147C28.3288 0.269327 28.9711 0 29.7782 0C30.5852 0 31.2275 0.269327 31.6722 0.791147C32.1334 1.31297 32.3475 2.07045 32.3475 2.99626V36.8978C32.3475 40.601 33.3522 43.5636 35.3616 45.8024C37.3709 48.0243 40.0062 49.1353 43.2508 49.1353C47.1213 49.1353 49.9048 48.0916 51.6012 45.9875C53.2976 43.8834 54.1541 40.8703 54.1541 36.8978V2.99626C54.1541 2.03678 54.4012 1.31297 54.8788 0.791147C55.3564 0.269327 56.0317 0 56.8882 0C57.7446 0 58.3375 0.269327 58.8152 0.791147H58.8316V0.774314Z" fill="white"></path>
</svg>
